# xmcd CD database file
#
# Track frame offsets:
#	150
#	18858
#	33225
#	48090
#	67363
#	80433
#	94918
#	109468
#	126570
#	145773
#
# Disc length: 2271 seconds
#
# Revision: 0
# Processed by: cddbd v1.5PL3 Copyright (c) Steve Scherf et al.
# Submitted via: CDex 1.50
#
DISCID=8b08dd0a
DTITLE=あさぎり夕 - なな色マジック２ SHADOW
DYEAR=1988
DGENRE=Other
TTITLE0=SHADOW
TTITLE1=呪文
TTITLE2=うわさのエンジェル
TTITLE3=恋人たち
TTITLE4=三文芝居
TTITLE5=君を瞳に閉じ込めて
TTITLE6=恋は　なな不思議
TTITLE7=Je m'appelle Michel
TTITLE8=ラスト・メッセージ
TTITLE9=All That Magic
EXTD=YEAR: 1988
EXTT0=
EXTT1=
EXTT2=
EXTT3=
EXTT4=
EXTT5=
EXTT6=
EXTT7=
EXTT8=
EXTT9=
PLAYORDER=
